# xmcd
#
# Track frame offsets: 
#        150
#        15044
#        28573
#        41731
#        55631
#        73916
#        91484
#        105043
#        125791
#        147693
#        164718
#        180933
#        200973
#        223179
#
# Disc length: 3246 seconds
#
# Revision: 0
# Processed by: cddbd v1.5.2PL0 Copyright (c) Steve Scherf et al.
# Submitted via: ExactAudioCopy v0.99pb3
#
DISCID=cb0cac0e
DTITLE=Texas Southside Kings - Texas Southside Kings
DYEAR=2006
DGENRE=Blues
TTITLE0=Mimbo - Jr Moore
TTITLE1=Leo's Shuffle - Leo Morris With Oscar O'Bear
TTITLE2=Come On Down - Bubba Mitchell
TTITLE3=Big Bad Woman - Big Walter Price
TTITLE4=It's My Own Fault - Willie Sampson
TTITLE5=Everyday I Have The Blues - Spot Barnett
TTITLE6=I Want To Know - Leo Morris With Oscar O'Bean
TTITLE7=Low Down Dresser - Spot Barnett
TTITLE8=One Room Country Shack - Jr Moore
TTITLE9=New O'rleans and Galveston - Big Walter Price
TTITLE10=Some Day - Willie Sampson
TTITLE11=Tammy, Tammy - Leo Morris With Oscar O'Bean
TTITLE12=Oh No - Big Walter Price
TTITLE13=Drifting Blues - Jr Moore
EXTD=
EXTT0=
EXTT1=
EXTT2=
EXTT3=
EXTT4=
EXTT5=
EXTT6=
EXTT7=
EXTT8=
EXTT9=
EXTT10=
EXTT11=
EXTT12=
EXTT13=
PLAYORDER=
